<?xml version="1.0" encoding="UTF-8" standalone="no"?>
<svg
   width="24"
   height="24"
   viewBox="0 0 24 24"
   version="1.1"
   id="svg1"
   xmlns="http://www.w3.org/2000/svg"
   xmlns:svg="http://www.w3.org/2000/svg">
  <path
     d="m 12.000001,0 a 9.4406501,9.4406501 0 0 0 -9.4295109,9.429511 9.3437833,9.3437833 0 0 0 1.8995833,5.656655 c 0,0 0.2579303,0.337895 0.2999344,0.386756 L 12.000001,24 19.235257,15.470292 c 0.03773,-0.04543 0.294673,-0.384126 0.294673,-0.384126 v -0.0028 A 9.3437833,9.3437833 0 0 0 21.429512,9.429511 9.4406501,9.4406501 0 0 0 12.000001,0 Z M 7.1510646,4.5805745 8.1166424,5.5461522 C 7.1220582,6.5338759 6.5117311,7.9136291 6.5117311,9.429511 A 5.4462144,5.4462144 0 0 0 8.1166424,13.31287 L 7.1510646,14.278447 C 5.9095499,13.036932 5.140979,11.32265 5.140979,9.429511 A 6.8386343,6.8386343 0 0 1 7.1510646,4.5805745 Z m 9.6978734,0 c 1.241514,1.2415149 2.010087,2.955798 2.010087,4.8489365 a 6.8386343,6.8386343 0 0 1 -2.010087,4.848936 L 15.883359,13.31287 c 0.994586,-0.987723 1.604913,-2.360616 1.604913,-3.883359 A 5.4599328,5.4599328 0 0 0 15.883359,5.5461522 Z M 9.0927443,6.5222539 10.058322,7.4878316 C 9.5644583,7.9816951 9.2558663,8.668141 9.2558663,9.429511 A 2.7436848,2.7436848 0 0 0 10.058322,11.37119 L 9.0927443,12.336768 C 8.3450904,11.589119 7.8851142,10.561279 7.8851142,9.429511 A 4.1018088,4.1018088 0 0 1 9.0927443,6.5222539 Z m 5.8145137,0 c 0.747654,0.7476515 1.207631,1.7754911 1.207631,2.9072571 a 4.1018088,4.1018088 0 0 1 -1.207631,2.907257 L 13.94168,11.37119 c 0.493863,-0.493863 0.802456,-1.180309 0.802456,-1.941679 A 2.7436848,2.7436848 0 0 0 13.94168,7.4878316 Z M 12.000001,8.058759 a 1.3718423,1.3718423 0 0 1 1.370752,1.370752 1.3718423,1.3718423 0 0 1 -1.370752,1.370752 1.3718423,1.3718423 0 0 1 -1.370752,-1.370752 1.3718423,1.3718423 0 0 1 1.370752,-1.370752 z"
/>
</svg>
